<svg width="14" height="11" viewBox="0 0 13.6 10" fill="none" xmlns="http://www.w3.org/2000/svg">
<path d="M11.6016 0C12.568 7.82014e-05 13.3516 0.78355 13.3516 1.75V8.63867C13.3515 9.60243 12.5735 10.3886 11.6045 10.3887H1.74902C0.781655 10.3887 5.84921e-05 9.60419 0 8.63867V1.75C6.50714e-08 0.783502 0.783502 5.64795e-07 1.75 0H11.6016ZM1.75 1.5C1.61193 1.5 1.5 1.61193 1.5 1.75V8.63867C1.50006 8.7776 1.61193 8.88865 1.74902 8.88867H11.6045C11.7398 8.88859 11.8515 8.77928 11.8516 8.63867V1.75C11.8516 1.61198 11.7396 1.50008 11.6016 1.5H1.75Z" fill="#C8C8C8"/>
</svg>
