<svg width="17" height="17" viewBox="0 0 17 17" fill="none" xmlns="http://www.w3.org/2000/svg">
<path d="M6.88662 0.342773L2.20669 5.3123H13.2056C14.7328 5.3123 16 6.46628 16 7.88404V14.8071" stroke="#DDDDDD" stroke-miterlimit="10"/>
<mask id="path-2-inside-1_97_319" fill="white">
<path d="M12.8116 9.37793C12.8116 8.82565 12.3639 8.37793 11.8116 8.37793H0.999988C0.447703 8.37793 -1.33514e-05 8.82564 -1.33514e-05 9.37793V13.3779C-1.33514e-05 13.9302 0.447702 14.3779 0.999987 14.3779H11.8116C12.3639 14.3779 12.8116 13.9302 12.8116 13.3779V9.37793Z"/>
</mask>
<path d="M11.8116 8.37793V9.37793H0.999988V8.37793V7.37793H11.8116V8.37793ZM-1.33514e-05 9.37793H0.999987V13.3779H-1.33514e-05H-1.00001V9.37793H-1.33514e-05ZM0.999987 14.3779V13.3779H11.8116V14.3779V15.3779H0.999987V14.3779ZM12.8116 13.3779H11.8116V9.37793H12.8116H13.8116V13.3779H12.8116ZM11.8116 14.3779V13.3779H11.8116H12.8116H13.8116C13.8116 14.4825 12.9162 15.3779 11.8116 15.3779V14.3779ZM-1.33514e-05 13.3779H0.999987V13.3779V14.3779V15.3779C-0.104583 15.3779 -1.00001 14.4825 -1.00001 13.3779H-1.33514e-05ZM0.999988 8.37793V9.37793H0.999987H-1.33514e-05H-1.00001C-1.00001 8.27336 -0.10458 7.37793 0.999988 7.37793V8.37793ZM11.8116 8.37793V7.37793C12.9162 7.37793 13.8116 8.27336 13.8116 9.37793H12.8116H11.8116V9.37793V8.37793Z" fill="#DDDDDD" mask="url(#path-2-inside-1_97_319)"/>
</svg>
