<svg width="17" height="17" viewBox="0 0 17 17" fill="none" xmlns="http://www.w3.org/2000/svg">
<path d="M6.88662 0.342773L2.20669 5.3123H13.2056C14.7328 5.3123 16 6.46628 16 7.88404V14.8071" stroke="#DDDDDD" stroke-miterlimit="10"/>
<mask id="path-2-inside-1_95_638" fill="white">
<path d="M12.8117 9.37793C12.8117 8.82565 12.3639 8.37793 11.8117 8.37793H1C0.447719 8.37793 1.90735e-06 8.82564 1.90735e-06 9.37793V13.3779C1.90735e-06 13.9302 0.447718 14.3779 1 14.3779H11.8117C12.3639 14.3779 12.8117 13.9302 12.8117 13.3779V9.37793Z"/>
</mask>
<path d="M11.8117 8.37793V9.37793H1V8.37793V7.37793H11.8117V8.37793ZM1.90735e-06 9.37793H1V13.3779H1.90735e-06H-0.999998V9.37793H1.90735e-06ZM1 14.3779V13.3779H11.8117V14.3779V15.3779H1V14.3779ZM12.8117 13.3779H11.8117V9.37793H12.8117H13.8117V13.3779H12.8117ZM11.8117 14.3779V13.3779H11.8117H12.8117H13.8117C13.8117 14.4825 12.9162 15.3779 11.8117 15.3779V14.3779ZM1.90735e-06 13.3779H1V13.3779V14.3779V15.3779C-0.104568 15.3779 -0.999998 14.4825 -0.999998 13.3779H1.90735e-06ZM1 8.37793V9.37793H1H1.90735e-06H-0.999998C-0.999998 8.27336 -0.104565 7.37793 1 7.37793V8.37793ZM11.8117 8.37793V7.37793C12.9162 7.37793 13.8117 8.27336 13.8117 9.37793H12.8117H11.8117V9.37793V8.37793Z" fill="#DDDDDD" mask="url(#path-2-inside-1_95_638)"/>
</svg>
