<svg width="17" height="17" viewBox="0 0 17 17" fill="none" xmlns="http://www.w3.org/2000/svg">
<path d="M9.61338 14.4643L14.2933 9.49477L3.29443 9.49477C1.76724 9.49477 0.500001 8.34078 0.500001 6.92303L0.500001 9.17912e-06" stroke="#DDDDDD" stroke-miterlimit="10"/>
<mask id="path-2-inside-1_97_318" fill="white">
<path d="M3.68835 5.42914C3.68835 5.98142 4.13607 6.42914 4.68835 6.42914L15.5 6.42914C16.0523 6.42914 16.5 5.98142 16.5 5.42914L16.5 1.42914C16.5 0.876855 16.0523 0.429139 15.5 0.429139L4.68836 0.429138C4.13607 0.429138 3.68835 0.876853 3.68835 1.42914L3.68835 5.42914Z"/>
</mask>
<path d="M4.68835 6.42914L4.68835 5.42914L15.5 5.42914L15.5 6.42914L15.5 7.42914L4.68835 7.42914L4.68835 6.42914ZM16.5 5.42914L15.5 5.42914L15.5 1.42914L16.5 1.42914L17.5 1.42914L17.5 5.42914L16.5 5.42914ZM15.5 0.429139L15.5 1.42914L4.68836 1.42914L4.68836 0.429138L4.68836 -0.570862L15.5 -0.570861L15.5 0.429139ZM3.68835 1.42914L4.68835 1.42914L4.68835 5.42914L3.68835 5.42914L2.68835 5.42914L2.68835 1.42914L3.68835 1.42914ZM4.68836 0.429138L4.68836 1.42914L4.68835 1.42914L3.68835 1.42914L2.68835 1.42914C2.68836 0.324567 3.58379 -0.570862 4.68836 -0.570862L4.68836 0.429138ZM16.5 1.42914L15.5 1.42914V1.42914L15.5 0.429139L15.5 -0.570861C16.6046 -0.570861 17.5 0.32457 17.5 1.42914L16.5 1.42914ZM15.5 6.42914L15.5 5.42914L15.5 5.42914L16.5 5.42914L17.5 5.42914C17.5 6.53371 16.6046 7.42914 15.5 7.42914L15.5 6.42914ZM4.68835 6.42914L4.68835 7.42914C3.58378 7.42914 2.68835 6.53371 2.68835 5.42914L3.68835 5.42914L4.68835 5.42914L4.68835 5.42914L4.68835 6.42914Z" fill="#DDDDDD" mask="url(#path-2-inside-1_97_318)"/>
</svg>
