<?xml version="1.0" encoding="UTF-8"?>
<svg xmlns="http://www.w3.org/2000/svg" xmlns:xlink="http://www.w3.org/1999/xlink" width="20px" height="20px" viewBox="0 0 20 20" version="1.1">
<g id="surface1">
<path style=" stroke:none;fill-rule:evenodd;fill:rgb(100%,25.490196%,25.490196%);fill-opacity:1;" d="M 9.992188 0 C 15.507812 0 19.980469 4.472656 19.980469 9.988281 C 19.980469 15.507812 15.507812 19.980469 9.992188 19.980469 C 4.472656 19.980469 0 15.507812 0 9.988281 C 0 4.472656 4.472656 0 9.992188 0 Z M 11.941406 6.367188 C 12.390625 5.910156 13.117188 5.910156 13.566406 6.363281 C 14.015625 6.8125 14.019531 7.546875 13.570312 8 L 11.609375 9.992188 L 13.574219 11.984375 C 14.015625 12.433594 14.011719 13.164062 13.558594 13.613281 C 13.109375 14.0625 12.382812 14.0625 11.941406 13.609375 L 9.992188 11.632812 L 8.035156 13.613281 C 7.589844 14.070312 6.863281 14.070312 6.414062 13.617188 C 5.964844 13.167969 5.960938 12.433594 6.410156 11.980469 L 8.371094 9.988281 L 6.40625 7.996094 C 5.964844 7.546875 5.96875 6.816406 6.421875 6.367188 C 6.871094 5.917969 7.597656 5.917969 8.039062 6.371094 L 9.988281 8.347656 Z M 11.941406 6.367188 "/>
</g>
</svg>
