<?xml version="1.0" encoding="UTF-8"?>
<svg xmlns="http://www.w3.org/2000/svg" xmlns:xlink="http://www.w3.org/1999/xlink" width="20px" height="20px" viewBox="0 0 20 20" version="1.1">
<g id="surface1">
<path style=" stroke:none;fill-rule:nonzero;fill:rgb(49.019608%,80%,98.823529%);fill-opacity:1;" d="M 10 0.625 C 4.824219 0.625 0.625 4.824219 0.625 10 C 0.625 15.175781 4.824219 19.375 10 19.375 C 15.175781 19.375 19.375 15.175781 19.375 10 C 19.375 4.824219 15.175781 0.625 10 0.625 Z M 11.25 14.375 C 11.25 15.066406 10.691406 15.625 10 15.625 C 9.308594 15.625 8.75 15.066406 8.75 14.375 L 8.75 10 C 8.75 9.308594 9.308594 8.75 10 8.75 C 10.691406 8.75 11.25 9.308594 11.25 10 Z M 10 7.617188 C 9.242188 7.617188 8.632812 7.007812 8.632812 6.25 C 8.632812 5.492188 9.242188 4.882812 10 4.882812 C 10.757812 4.882812 11.367188 5.492188 11.367188 6.25 C 11.367188 7.007812 10.757812 7.617188 10 7.617188 Z M 10 7.617188 "/>
</g>
</svg>
