<?xml version="1.0" encoding="UTF-8"?>
<svg xmlns="http://www.w3.org/2000/svg" xmlns:xlink="http://www.w3.org/1999/xlink" width="16px" height="16px" viewBox="0 0 16 16" version="1.1">
<g id="surface1">
<path style=" stroke:none;fill-rule:nonzero;fill:rgb(49.019608%,80%,98.823529%);fill-opacity:1;" d="M 8 0.5 C 3.859375 0.5 0.5 3.859375 0.5 8 C 0.5 12.140625 3.859375 15.5 8 15.5 C 12.140625 15.5 15.5 12.140625 15.5 8 C 15.5 3.859375 12.140625 0.5 8 0.5 Z M 9 11.5 C 9 12.054688 8.554688 12.5 8 12.5 C 7.445312 12.5 7 12.054688 7 11.5 L 7 8 C 7 7.445312 7.445312 7 8 7 C 8.554688 7 9 7.445312 9 8 Z M 8 6.09375 C 7.394531 6.09375 6.90625 5.605469 6.90625 5 C 6.90625 4.394531 7.394531 3.90625 8 3.90625 C 8.605469 3.90625 9.09375 4.394531 9.09375 5 C 9.09375 5.605469 8.605469 6.09375 8 6.09375 Z M 8 6.09375 "/>
</g>
</svg>
