<?xml version="1.0" encoding="UTF-8"?>
<svg xmlns="http://www.w3.org/2000/svg" xmlns:xlink="http://www.w3.org/1999/xlink" width="16px" height="16px" viewBox="0 0 16 16" version="1.1">
<g id="surface1">
<path style=" stroke:none;fill-rule:evenodd;fill:rgb(100%,25.490196%,25.490196%);fill-opacity:1;" d="M 7.992188 0 C 12.40625 0 15.984375 3.578125 15.984375 7.992188 C 15.984375 12.40625 12.40625 15.984375 7.992188 15.984375 C 3.578125 15.984375 0 12.40625 0 7.992188 C 0 3.578125 3.578125 0 7.992188 0 Z M 9.554688 5.09375 C 9.914062 4.726562 10.492188 4.726562 10.851562 5.089844 C 11.210938 5.449219 11.214844 6.039062 10.855469 6.398438 L 9.289062 7.992188 L 10.859375 9.585938 C 11.210938 9.945312 11.210938 10.53125 10.847656 10.890625 C 10.488281 11.25 9.90625 11.25 9.554688 10.886719 L 7.992188 9.304688 L 6.429688 10.890625 C 6.070312 11.257812 5.492188 11.257812 5.132812 10.894531 C 4.773438 10.535156 4.769531 9.945312 5.128906 9.585938 L 6.695312 7.992188 L 5.125 6.398438 C 4.773438 6.039062 4.773438 5.453125 5.136719 5.09375 C 5.496094 4.734375 6.078125 4.734375 6.429688 5.097656 L 7.992188 6.679688 Z M 9.554688 5.09375 "/>
</g>
</svg>
