<svg width="10" height="17" viewBox="0 0 10 17" fill="none" xmlns="http://www.w3.org/2000/svg">
<path d="M6.29395 0C7.19458 0.000103555 8.05841 0.358327 8.69531 0.995117C9.33222 1.63205 9.69034 2.49575 9.69043 3.39648V13.7461H8.69043V3.39648C8.69034 2.76097 8.43765 2.15155 7.98828 1.70215C7.53891 1.25289 6.92937 1.0001 6.29395 1H3.39648C2.76107 1.00018 2.15147 1.25283 1.70215 1.70215C1.25285 2.15153 1.00009 2.76102 1 3.39648V13.2461C1.00007 13.7279 1.1916 14.1905 1.53223 14.5312C1.87295 14.8719 2.33558 15.0634 2.81738 15.0635H3.97656C4.45834 15.0634 4.921 14.8719 5.26172 14.5312C5.60244 14.1905 5.79387 13.728 5.79395 13.2461V4.55566C5.79393 4.381 5.72408 4.21336 5.60059 4.08984C5.47707 3.96645 5.30936 3.89648 5.13477 3.89648H4.55566C4.3811 3.89659 4.21328 3.9664 4.08984 4.08984C3.96643 4.21335 3.8965 4.38106 3.89648 4.55566V11.4287H2.89648V4.55566C2.8965 4.11584 3.07186 3.69385 3.38281 3.38281C3.69379 3.07184 4.11589 2.89659 4.55566 2.89648H5.13477C5.57458 2.89648 5.99657 3.07188 6.30762 3.38281C6.61864 3.69387 6.79393 4.11579 6.79395 4.55566V13.2461C6.79387 13.9932 6.49701 14.71 5.96875 15.2383C5.4405 15.7664 4.72355 16.0634 3.97656 16.0635H2.81738C2.07037 16.0634 1.35345 15.7665 0.825195 15.2383C0.297028 14.71 7.30343e-05 13.9931 0 13.2461V3.39648C8.97321e-05 2.49581 0.358286 1.63204 0.995117 0.995117C1.63198 0.358259 2.49585 0.000181275 3.39648 0H6.29395Z" fill="#FAFAFA"/>
</svg>
