<svg width="24" height="24" viewBox="0 0 24 24" fill="none" xmlns="http://www.w3.org/2000/svg">
<g clip-path="url(#clip0_2728_86)">
<path d="M22.4911 10.6187C22.7729 10.9701 22.929 11.4267 22.929 11.9001C22.929 12.3735 22.7729 12.8301 22.4911 13.1815C20.7061 15.3427 16.6431 19.5502 11.9001 19.5502C7.15708 19.5502 3.09408 15.3427 1.30908 13.1815C1.02715 12.8301 0.871094 12.3735 0.871094 11.9001C0.871094 11.4267 1.02715 10.9701 1.30908 10.6187C3.09408 8.45755 7.15708 4.25 11.9001 4.25C16.6431 4.25 20.7061 8.45755 22.4911 10.6187Z" stroke="#F3F3F3" stroke-width="1.3" stroke-linecap="round" stroke-linejoin="round"/>
<path d="M11.9 15.3C13.7778 15.3 15.3 13.7778 15.3 11.9C15.3 10.0222 13.7778 8.5 11.9 8.5C10.0222 8.5 8.5 10.0222 8.5 11.9C8.5 13.7778 10.0222 15.3 11.9 15.3Z" stroke="#F3F3F3" stroke-width="1.3" stroke-linecap="round" stroke-linejoin="round"/>
</g>
<defs>
<clipPath id="clip0_2728_86">
<rect width="23.8" height="23.8" fill="white"/>
</clipPath>
</defs>
</svg>
