<svg width="24" height="24" viewBox="0 0 24 24" fill="none" xmlns="http://www.w3.org/2000/svg">
<g clip-path="url(#clip0_2728_79)">
<path d="M14.4501 19.1585C13.63 19.4065 12.7767 19.5502 11.9001 19.5502C7.15708 19.5502 3.09408 15.3427 1.30908 13.1815C1.02715 12.8301 0.871094 12.3735 0.871094 11.9001C0.871094 11.4267 1.02715 10.9701 1.30908 10.6187C1.87462 9.93398 2.66883 9.04385 3.64089 8.1472M6.16967 6.16148C7.85735 5.06481 9.81287 4.25 11.9001 4.25C16.6431 4.25 20.7061 8.45755 22.4911 10.6187C22.7729 10.9701 22.929 11.4267 22.929 11.9001C22.929 12.3735 22.7729 12.8301 22.4911 13.1815C21.5071 14.3728 19.8311 16.1858 17.7304 17.5732L6.16967 6.16148Z" stroke="#F3F3F3" stroke-linecap="round" stroke-linejoin="round"/>
<path d="M14.3042 14.3043C15.6319 12.9765 15.6319 10.8237 14.3042 9.49595C12.9764 8.16818 10.8236 8.16818 9.49585 9.49595" stroke="#F3F3F3" stroke-linecap="round" stroke-linejoin="round"/>
<path d="M20 20L3.5 3.5" stroke="#F3F3F3" stroke-width="1.3" stroke-linecap="round" stroke-linejoin="round"/>
<path d="M14.4501 19.1585C13.63 19.4065 12.7767 19.5502 11.9001 19.5502C7.15708 19.5502 3.09408 15.3427 1.30908 13.1815C1.02715 12.8301 0.871094 12.3735 0.871094 11.9001C0.871094 11.4267 1.02715 10.9701 1.30908 10.6187C1.87462 9.93398 2.66883 9.04385 3.64089 8.1472M6.16967 6.16148C7.85735 5.06481 9.81287 4.25 11.9001 4.25C16.6431 4.25 20.7061 8.45755 22.4911 10.6187C22.7729 10.9701 22.929 11.4267 22.929 11.9001C22.929 12.3735 22.7729 12.8301 22.4911 13.1815C21.5071 14.3728 19.8311 16.1858 17.7304 17.5732L6.16967 6.16148Z" stroke="#F3F3F3" stroke-width="1.3" stroke-linecap="round" stroke-linejoin="round"/>
<path d="M14.3042 14.3043C15.6319 12.9765 15.6319 10.8237 14.3042 9.49595C12.9764 8.16818 10.8236 8.16818 9.49585 9.49595" stroke="#F3F3F3" stroke-width="1.3" stroke-linecap="round" stroke-linejoin="round"/>
</g>
<defs>
<clipPath id="clip0_2728_79">
<rect width="23.8" height="23.8" fill="white"/>
</clipPath>
</defs>
</svg>
