<svg width="11" height="13" viewBox="0 0 11 13" fill="none" xmlns="http://www.w3.org/2000/svg">
<path d="M0.5 2.57324C0.776004 2.57324 0.999775 2.79729 1 3.07324V9.65234C1.0002 10.4803 1.67147 11.1503 2.5 11.1504H7.09766C7.37351 11.1504 7.59718 11.3747 7.59766 11.6504C7.59766 11.9265 7.3738 12.1504 7.09766 12.1504H2.5C1.11978 12.1503 0.000204816 11.0331 0 9.65234V3.07324C0.000224474 2.79734 0.224065 2.57332 0.5 2.57324ZM7.69629 0.00878906C7.78876 0.0266271 7.87584 0.071257 7.94531 0.136719L10.7393 2.77539C10.8392 2.86976 10.8954 3.00222 10.8955 3.13965V8.85742C10.8955 9.23266 10.7379 9.58654 10.4668 9.84277C10.1965 10.098 9.8354 10.2372 9.46484 10.2373H3.41016C3.0396 10.2372 2.67844 10.098 2.4082 9.84277C2.13723 9.58655 1.97852 9.2326 1.97852 8.85742V1.37988C1.97862 1.00464 2.13706 0.650698 2.4082 0.394531C2.67844 0.139294 3.0396 0.000119562 3.41016 0H7.60156L7.69629 0.00878906ZM3.41016 1C3.28703 1.00012 3.17363 1.04661 3.09473 1.12109C3.01684 1.19469 2.97862 1.28882 2.97852 1.37988V8.85742C2.97852 8.94846 3.01698 9.04256 3.09473 9.11621C3.17363 9.19073 3.287 9.23718 3.41016 9.2373H9.46484C9.58789 9.23721 9.70038 9.19059 9.7793 9.11621C9.85734 9.0425 9.89551 8.94863 9.89551 8.85742V3.35352L7.40234 1H3.41016ZM6.93945 4.55273H8.41895V5.55273H6.93945V7.03223H5.93945V5.55273H4.45996V4.55273H5.93945V3.07324H6.93945V4.55273Z" fill="#DDDDDD"/>
</svg>
