<svg width="13" height="13" viewBox="0 0 13 13" fill="none" xmlns="http://www.w3.org/2000/svg">
<path d="M11.3643 10.6899L10.6572 11.397L7.94629 8.68604C7.9478 8.74794 7.95038 8.81343 7.95117 8.8833C7.95968 9.63211 7.88863 10.581 7.1709 11.6577C7.08788 11.7822 6.95259 11.8635 6.80371 11.8784C6.65496 11.893 6.50716 11.8395 6.40137 11.7339L3.875 9.20752L0.707031 12.3745L0 11.6675L3.16797 8.50049L0.320312 5.65283C0.214855 5.54696 0.16203 5.39923 0.176758 5.25049C0.191644 5.10179 0.272218 4.96729 0.396484 4.88428C1.46362 4.17288 2.44917 4.04848 3.22266 4.03076C3.24515 4.03025 3.26787 4.03014 3.29004 4.02979L0.657227 1.39697L1.36426 0.689941L11.3643 10.6899ZM4.20996 5.02295C4.05825 5.03072 3.8963 5.03099 3.73926 5.02979C3.57808 5.02855 3.41653 5.0259 3.24609 5.02979C2.72364 5.04173 2.13514 5.11014 1.49414 5.41162L6.6416 10.5601C6.9219 9.94449 6.95589 9.39726 6.9502 8.89502C6.94672 8.58967 6.92474 8.21588 6.9502 7.90674C6.95543 7.84327 6.96426 7.77915 6.97461 7.71436L4.27734 5.01709C4.25448 5.01867 4.23208 5.02182 4.20996 5.02295ZM7.3457 0.00244141C7.49451 -0.0120894 7.64229 0.0412624 7.74805 0.146973L11.9082 4.30615C12.014 4.41196 12.0664 4.56059 12.0518 4.70947C12.0369 4.85819 11.9563 4.99265 11.832 5.07568L9.91211 6.35596L8.95215 6.99658L8.67383 6.58057L8.39746 6.16357L9.35742 5.5249L10.7695 4.58252L7.47168 1.28467L6.53027 2.69775L5.89062 3.65771L5.05859 3.10303L5.69824 2.14209L6.97852 0.223145C7.06163 0.0987356 7.1968 0.0171861 7.3457 0.00244141Z" fill="#DDDDDD"/>
</svg>
