<svg xmlns="http://www.w3.org/2000/svg" width="13" height="13" viewBox="0 0 13 13" fill="none">
  <path fill-rule="evenodd" clip-rule="evenodd" d="M11.9075 4.30656C12.0133 4.41237 12.0664 4.56026 12.0518 4.70915C12.0371 4.85808 11.956 4.99271 11.8316 5.07582L8.22559 7.48026C8.27133 8.23069 8.38674 9.83353 7.17045 11.658C7.08744 11.7825 6.95266 11.8634 6.80378 11.8783C6.65488 11.893 6.5071 11.8396 6.4012 11.7339L3.87454 9.20728L0.707056 12.3748L-5.07338e-05 11.6677L3.16743 8.50018L0.320357 5.65311C0.214693 5.54721 0.161293 5.39941 0.176036 5.25052C0.190933 5.10168 0.271842 4.96685 0.396316 4.88385C2.22075 3.6676 3.82362 3.78298 4.57405 3.82872L6.97849 0.222747C7.0616 0.0983384 7.19625 0.0172112 7.34516 0.00246657C7.49402 -0.0121223 7.64194 0.0410369 7.74774 0.146788L11.9075 4.30656ZM5.25008 4.618C5.15741 4.7568 5.00127 4.8402 4.83438 4.84035C4.19995 4.84035 2.99858 4.60083 1.48322 5.40175L6.65255 10.5711C7.45351 9.0557 7.21396 7.85437 7.21396 7.21993C7.2141 7.05303 7.2975 6.8969 7.43631 6.80423L10.7695 4.58278L7.47153 1.28479L5.25008 4.618Z" fill="#919191"/>
</svg>
